<mxfile host="65bd71144e" scale="1" border="0">
    <diagram id="s5zgOlhoY8HzJwKQ5w-s" name="Page-1">
        <mxGraphModel dx="1244" dy="636" grid="1" gridSize="10" guides="1" tooltips="1" connect="1" arrows="1" fold="1" page="1" pageScale="1" pageWidth="2000" pageHeight="2000" background="#C7FFFB" math="0" shadow="1">
            <root>
                <mxCell id="0"/>
                <mxCell id="1" parent="0"/>
                <mxCell id="7" value="" style="group;aspect=fixed;shadow=1;" vertex="1" connectable="0" parent="1">
                    <mxGeometry x="60" y="460" width="681.5" height="290" as="geometry"/>
                </mxCell>
                <mxCell id="2" value="Are arguments same as last time?" style="whiteSpace=wrap;html=1;rounded=1;shadow=1;aspect=fixed;" parent="7" vertex="1">
                    <mxGeometry x="250" y="20" width="150" height="80" as="geometry"/>
                </mxCell>
                <mxCell id="3" value="Return result." style="whiteSpace=wrap;html=1;rounded=1;shadow=1;" parent="7" vertex="1">
                    <mxGeometry x="460" y="180" width="110" height="60" as="geometry"/>
                </mxCell>
                <object label="Yes" id="4">
                    <mxCell style="edgeStyle=none;html=1;entryX=0;entryY=0;entryDx=0;entryDy=0;shadow=1;" parent="7" source="2" target="3" edge="1">
                        <mxGeometry relative="1" as="geometry"/>
                    </mxCell>
                </object>
                <mxCell id="5" value="Run function again." style="whiteSpace=wrap;html=1;rounded=1;shadow=1;" parent="7" vertex="1">
                    <mxGeometry x="30" y="180" width="150" height="60" as="geometry"/>
                </mxCell>
                <mxCell id="6" value="No" style="edgeStyle=none;html=1;entryX=1;entryY=0;entryDx=0;entryDy=0;shadow=1;" parent="7" source="2" target="5" edge="1">
                    <mxGeometry relative="1" as="geometry"/>
                </mxCell>
                <mxCell id="8" value="Untitled Layer" parent="0"/>
            </root>
        </mxGraphModel>
    </diagram>
</mxfile>